<mxfile host="app.diagrams.net" modified="2023-09-01T16:17:21.586Z" agent="Mozilla/5.0 (Macintosh; Intel Mac OS X 10_15_7) AppleWebKit/605.1.15 (KHTML, like Gecko) Version/15.4 Safari/605.1.15" etag="FP0rf_X8T81NBx9xAMXW" version="21.7.2" type="github">
  <diagram id="C5RBs43oDa-KdzZeNtuy" name="Page-1">
    <mxGraphModel dx="545" dy="404" grid="1" gridSize="10" guides="1" tooltips="1" connect="1" arrows="1" fold="1" page="1" pageScale="1" pageWidth="827" pageHeight="1169" math="0" shadow="0">
      <root>
        <mxCell id="WIyWlLk6GJQsqaUBKTNV-0" />
        <mxCell id="WIyWlLk6GJQsqaUBKTNV-1" parent="WIyWlLk6GJQsqaUBKTNV-0" />
        <mxCell id="D7f5AKQHRCtzAQtNA1vA-49" value="&lt;font style=&quot;font-size: 10px;&quot;&gt;Seed KG (semantic info)&lt;/font&gt;" style="rounded=0;whiteSpace=wrap;html=1;strokeWidth=1;dashed=1;labelPosition=center;verticalLabelPosition=top;align=center;verticalAlign=bottom;" vertex="1" parent="WIyWlLk6GJQsqaUBKTNV-1">
          <mxGeometry x="200" y="50" width="120" height="130" as="geometry" />
        </mxCell>
        <mxCell id="WIyWlLk6GJQsqaUBKTNV-4" value="Yes" style="rounded=0;html=1;jettySize=auto;orthogonalLoop=1;fontSize=11;endArrow=block;endFill=0;endSize=8;strokeWidth=1;shadow=0;labelBackgroundColor=none;edgeStyle=orthogonalEdgeStyle;" parent="WIyWlLk6GJQsqaUBKTNV-1" edge="1">
          <mxGeometry y="20" relative="1" as="geometry">
            <mxPoint as="offset" />
            <mxPoint x="230" y="500" as="sourcePoint" />
            <mxPoint x="230" y="540" as="targetPoint" />
          </mxGeometry>
        </mxCell>
        <mxCell id="WIyWlLk6GJQsqaUBKTNV-7" value="GLM" style="rounded=1;whiteSpace=wrap;html=1;fontSize=12;glass=0;strokeWidth=1;shadow=0;" parent="WIyWlLk6GJQsqaUBKTNV-1" vertex="1">
          <mxGeometry x="170" y="460" width="120" height="40" as="geometry" />
        </mxCell>
        <mxCell id="WIyWlLk6GJQsqaUBKTNV-8" value="No" style="rounded=0;html=1;jettySize=auto;orthogonalLoop=1;fontSize=11;endArrow=block;endFill=0;endSize=8;strokeWidth=1;shadow=0;labelBackgroundColor=none;edgeStyle=orthogonalEdgeStyle;" parent="WIyWlLk6GJQsqaUBKTNV-1" target="WIyWlLk6GJQsqaUBKTNV-11" edge="1">
          <mxGeometry x="0.3333" y="20" relative="1" as="geometry">
            <mxPoint as="offset" />
            <mxPoint x="230" y="620" as="sourcePoint" />
          </mxGeometry>
        </mxCell>
        <mxCell id="WIyWlLk6GJQsqaUBKTNV-11" value="Repair Lamp" style="rounded=1;whiteSpace=wrap;html=1;fontSize=12;glass=0;strokeWidth=1;shadow=0;" parent="WIyWlLk6GJQsqaUBKTNV-1" vertex="1">
          <mxGeometry x="170" y="680" width="120" height="40" as="geometry" />
        </mxCell>
        <mxCell id="WIyWlLk6GJQsqaUBKTNV-12" value="GOBI" style="rounded=1;whiteSpace=wrap;html=1;fontSize=12;glass=0;strokeWidth=1;shadow=0;" parent="WIyWlLk6GJQsqaUBKTNV-1" vertex="1">
          <mxGeometry x="170" y="550" width="120" height="40" as="geometry" />
        </mxCell>
        <mxCell id="D7f5AKQHRCtzAQtNA1vA-42" value="" style="group" vertex="1" connectable="0" parent="WIyWlLk6GJQsqaUBKTNV-1">
          <mxGeometry x="213" y="60" width="100" height="68" as="geometry" />
        </mxCell>
        <mxCell id="D7f5AKQHRCtzAQtNA1vA-11" value="" style="strokeWidth=1;dashed=0;align=center;fontSize=8;shape=ellipse;perimeter=ellipsePerimeter;whiteSpace=wrap;html=1;aspect=fixed;" vertex="1" parent="D7f5AKQHRCtzAQtNA1vA-42">
          <mxGeometry y="54.816326530612244" width="18.040816326530614" height="12.489795918367347" as="geometry" />
        </mxCell>
        <mxCell id="D7f5AKQHRCtzAQtNA1vA-12" value="" style="strokeWidth=1;dashed=0;align=center;fontSize=8;shape=ellipse;perimeter=ellipsePerimeter;whiteSpace=wrap;html=1;aspect=fixed;" vertex="1" parent="D7f5AKQHRCtzAQtNA1vA-42">
          <mxGeometry x="78.33333333333334" y="55.51020408163265" width="18.040816326530614" height="12.489795918367347" as="geometry" />
        </mxCell>
        <mxCell id="D7f5AKQHRCtzAQtNA1vA-16" value="" style="strokeWidth=1;dashed=0;align=center;fontSize=8;shape=ellipse;perimeter=ellipsePerimeter;whiteSpace=wrap;html=1;aspect=fixed;" vertex="1" parent="D7f5AKQHRCtzAQtNA1vA-42">
          <mxGeometry x="39.16666666666667" y="55.51020408163265" width="18.040816326530614" height="12.489795918367347" as="geometry" />
        </mxCell>
        <mxCell id="D7f5AKQHRCtzAQtNA1vA-18" value="" style="edgeStyle=none;endArrow=none;dashed=0;html=1;strokeWidth=1;rounded=0;" edge="1" source="D7f5AKQHRCtzAQtNA1vA-16" target="D7f5AKQHRCtzAQtNA1vA-11" parent="D7f5AKQHRCtzAQtNA1vA-42">
          <mxGeometry relative="1" as="geometry" />
        </mxCell>
        <mxCell id="D7f5AKQHRCtzAQtNA1vA-19" value="" style="edgeStyle=none;endArrow=none;dashed=0;html=1;strokeWidth=1;rounded=0;" edge="1" source="D7f5AKQHRCtzAQtNA1vA-16" target="D7f5AKQHRCtzAQtNA1vA-12" parent="D7f5AKQHRCtzAQtNA1vA-42">
          <mxGeometry relative="1" as="geometry" />
        </mxCell>
        <mxCell id="D7f5AKQHRCtzAQtNA1vA-28" value="" style="strokeWidth=1;dashed=0;align=center;fontSize=8;shape=ellipse;perimeter=ellipsePerimeter;whiteSpace=wrap;html=1;aspect=fixed;" vertex="1" parent="D7f5AKQHRCtzAQtNA1vA-42">
          <mxGeometry x="78.33333333333334" width="18.040816326530614" height="12.489795918367347" as="geometry" />
        </mxCell>
        <mxCell id="D7f5AKQHRCtzAQtNA1vA-29" value="" style="strokeWidth=1;dashed=0;align=center;fontSize=8;shape=ellipse;perimeter=ellipsePerimeter;whiteSpace=wrap;html=1;aspect=fixed;" vertex="1" parent="D7f5AKQHRCtzAQtNA1vA-42">
          <mxGeometry y="12.489795918367347" width="18.040816326530614" height="12.489795918367347" as="geometry" />
        </mxCell>
        <mxCell id="D7f5AKQHRCtzAQtNA1vA-30" value="" style="strokeWidth=1;dashed=0;align=center;fontSize=8;shape=ellipse;perimeter=ellipsePerimeter;whiteSpace=wrap;html=1;aspect=fixed;" vertex="1" parent="D7f5AKQHRCtzAQtNA1vA-42">
          <mxGeometry x="78.33333333333334" y="24.979591836734695" width="18.040816326530614" height="12.489795918367347" as="geometry" />
        </mxCell>
        <mxCell id="D7f5AKQHRCtzAQtNA1vA-31" value="" style="strokeWidth=1;dashed=0;align=center;fontSize=8;shape=ellipse;perimeter=ellipsePerimeter;whiteSpace=wrap;html=1;aspect=fixed;" vertex="1" parent="D7f5AKQHRCtzAQtNA1vA-42">
          <mxGeometry x="39.16666666666667" y="12.489795918367347" width="18.040816326530614" height="12.489795918367347" as="geometry" />
        </mxCell>
        <mxCell id="D7f5AKQHRCtzAQtNA1vA-34" value="" style="edgeStyle=none;endArrow=none;dashed=0;html=1;strokeWidth=1;rounded=0;" edge="1" parent="D7f5AKQHRCtzAQtNA1vA-42" source="D7f5AKQHRCtzAQtNA1vA-31" target="D7f5AKQHRCtzAQtNA1vA-28">
          <mxGeometry relative="1" as="geometry" />
        </mxCell>
        <mxCell id="D7f5AKQHRCtzAQtNA1vA-35" value="" style="edgeStyle=none;endArrow=none;dashed=0;html=1;strokeWidth=1;rounded=0;" edge="1" parent="D7f5AKQHRCtzAQtNA1vA-42" source="D7f5AKQHRCtzAQtNA1vA-31" target="D7f5AKQHRCtzAQtNA1vA-29">
          <mxGeometry relative="1" as="geometry" />
        </mxCell>
        <mxCell id="D7f5AKQHRCtzAQtNA1vA-36" value="" style="edgeStyle=none;endArrow=none;dashed=0;html=1;strokeWidth=1;rounded=0;" edge="1" parent="D7f5AKQHRCtzAQtNA1vA-42" source="D7f5AKQHRCtzAQtNA1vA-31" target="D7f5AKQHRCtzAQtNA1vA-30">
          <mxGeometry relative="1" as="geometry" />
        </mxCell>
        <mxCell id="D7f5AKQHRCtzAQtNA1vA-43" value="" style="strokeWidth=1;dashed=0;align=center;fontSize=8;shape=ellipse;perimeter=ellipsePerimeter;whiteSpace=wrap;html=1;aspect=fixed;" vertex="1" parent="WIyWlLk6GJQsqaUBKTNV-1">
          <mxGeometry x="213" y="149.99632653061224" width="18.040816326530614" height="12.489795918367347" as="geometry" />
        </mxCell>
        <mxCell id="D7f5AKQHRCtzAQtNA1vA-44" value="" style="strokeWidth=1;dashed=0;align=center;fontSize=8;shape=ellipse;perimeter=ellipsePerimeter;whiteSpace=wrap;html=1;aspect=fixed;" vertex="1" parent="WIyWlLk6GJQsqaUBKTNV-1">
          <mxGeometry x="291.33333333333337" y="150.69020408163266" width="18.040816326530614" height="12.489795918367347" as="geometry" />
        </mxCell>
        <mxCell id="D7f5AKQHRCtzAQtNA1vA-45" value="" style="strokeWidth=1;dashed=0;align=center;fontSize=8;shape=ellipse;perimeter=ellipsePerimeter;whiteSpace=wrap;html=1;aspect=fixed;" vertex="1" parent="WIyWlLk6GJQsqaUBKTNV-1">
          <mxGeometry x="252.16666666666669" y="150.69020408163266" width="18.040816326530614" height="12.489795918367347" as="geometry" />
        </mxCell>
        <mxCell id="D7f5AKQHRCtzAQtNA1vA-46" value="" style="edgeStyle=none;endArrow=none;dashed=0;html=1;strokeWidth=1;rounded=0;" edge="1" parent="WIyWlLk6GJQsqaUBKTNV-1" source="D7f5AKQHRCtzAQtNA1vA-45" target="D7f5AKQHRCtzAQtNA1vA-43">
          <mxGeometry relative="1" as="geometry" />
        </mxCell>
        <mxCell id="D7f5AKQHRCtzAQtNA1vA-47" value="" style="edgeStyle=none;endArrow=none;dashed=0;html=1;strokeWidth=1;rounded=0;" edge="1" parent="WIyWlLk6GJQsqaUBKTNV-1" source="D7f5AKQHRCtzAQtNA1vA-45" target="D7f5AKQHRCtzAQtNA1vA-44">
          <mxGeometry relative="1" as="geometry" />
        </mxCell>
        <mxCell id="D7f5AKQHRCtzAQtNA1vA-108" value="" style="group" vertex="1" connectable="0" parent="WIyWlLk6GJQsqaUBKTNV-1">
          <mxGeometry x="190" y="260" width="190" height="140" as="geometry" />
        </mxCell>
        <mxCell id="D7f5AKQHRCtzAQtNA1vA-106" value="&lt;font style=&quot;font-size: 10px;&quot;&gt;Dataset of chain token &lt;br&gt;graphs (syntactic info)&lt;/font&gt;" style="rounded=0;whiteSpace=wrap;html=1;labelPosition=center;verticalLabelPosition=bottom;align=center;verticalAlign=top;dashed=1;" vertex="1" parent="D7f5AKQHRCtzAQtNA1vA-108">
          <mxGeometry width="190" height="140" as="geometry" />
        </mxCell>
        <mxCell id="D7f5AKQHRCtzAQtNA1vA-107" value="" style="group" vertex="1" connectable="0" parent="D7f5AKQHRCtzAQtNA1vA-108">
          <mxGeometry x="8" y="7.690204081632658" width="172" height="123.30979591836734" as="geometry" />
        </mxCell>
        <mxCell id="D7f5AKQHRCtzAQtNA1vA-53" value="" style="strokeWidth=1;dashed=0;align=center;fontSize=8;shape=ellipse;perimeter=ellipsePerimeter;whiteSpace=wrap;html=1;aspect=fixed;" vertex="1" parent="D7f5AKQHRCtzAQtNA1vA-107">
          <mxGeometry x="5" y="2.306122448979579" width="18.040816326530614" height="12.489795918367347" as="geometry" />
        </mxCell>
        <mxCell id="D7f5AKQHRCtzAQtNA1vA-54" value="..." style="strokeWidth=1;dashed=0;align=center;fontSize=12;shape=ellipse;perimeter=ellipsePerimeter;whiteSpace=wrap;html=1;aspect=fixed;strokeColor=none;" vertex="1" parent="D7f5AKQHRCtzAQtNA1vA-107">
          <mxGeometry x="79.33333333333337" width="18.040816326530614" height="12.489795918367347" as="geometry" />
        </mxCell>
        <mxCell id="D7f5AKQHRCtzAQtNA1vA-55" value="" style="strokeWidth=1;dashed=0;align=center;fontSize=8;shape=ellipse;perimeter=ellipsePerimeter;whiteSpace=wrap;html=1;aspect=fixed;" vertex="1" parent="D7f5AKQHRCtzAQtNA1vA-107">
          <mxGeometry x="44.166666666666686" y="3" width="18.040816326530614" height="12.489795918367347" as="geometry" />
        </mxCell>
        <mxCell id="D7f5AKQHRCtzAQtNA1vA-56" value="" style="edgeStyle=none;endArrow=none;dashed=0;html=1;strokeWidth=1;rounded=0;" edge="1" parent="D7f5AKQHRCtzAQtNA1vA-107" source="D7f5AKQHRCtzAQtNA1vA-55" target="D7f5AKQHRCtzAQtNA1vA-53">
          <mxGeometry relative="1" as="geometry" />
        </mxCell>
        <mxCell id="D7f5AKQHRCtzAQtNA1vA-57" value="" style="edgeStyle=none;endArrow=none;dashed=0;html=1;strokeWidth=1;rounded=0;" edge="1" parent="D7f5AKQHRCtzAQtNA1vA-107" source="D7f5AKQHRCtzAQtNA1vA-55">
          <mxGeometry relative="1" as="geometry">
            <mxPoint x="75" y="9.309795918367342" as="targetPoint" />
          </mxGeometry>
        </mxCell>
        <mxCell id="D7f5AKQHRCtzAQtNA1vA-58" value="" style="strokeWidth=1;dashed=0;align=center;fontSize=8;shape=ellipse;perimeter=ellipsePerimeter;whiteSpace=wrap;html=1;aspect=fixed;" vertex="1" parent="D7f5AKQHRCtzAQtNA1vA-107">
          <mxGeometry x="111.13" y="2.996122448979577" width="18.040816326530614" height="12.489795918367347" as="geometry" />
        </mxCell>
        <mxCell id="D7f5AKQHRCtzAQtNA1vA-60" value="" style="strokeWidth=1;dashed=0;align=center;fontSize=8;shape=ellipse;perimeter=ellipsePerimeter;whiteSpace=wrap;html=1;aspect=fixed;" vertex="1" parent="D7f5AKQHRCtzAQtNA1vA-107">
          <mxGeometry x="150.29666666666668" y="3.6899999999999977" width="18.040816326530614" height="12.489795918367347" as="geometry" />
        </mxCell>
        <mxCell id="D7f5AKQHRCtzAQtNA1vA-61" value="" style="edgeStyle=none;endArrow=none;dashed=0;html=1;strokeWidth=1;rounded=0;" edge="1" parent="D7f5AKQHRCtzAQtNA1vA-107" source="D7f5AKQHRCtzAQtNA1vA-60" target="D7f5AKQHRCtzAQtNA1vA-58">
          <mxGeometry relative="1" as="geometry" />
        </mxCell>
        <mxCell id="D7f5AKQHRCtzAQtNA1vA-67" value="" style="edgeStyle=none;endArrow=none;dashed=0;html=1;strokeWidth=1;rounded=0;" edge="1" parent="D7f5AKQHRCtzAQtNA1vA-107">
          <mxGeometry relative="1" as="geometry">
            <mxPoint x="98" y="9.309795918367342" as="sourcePoint" />
            <mxPoint x="111" y="9.309795918367342" as="targetPoint" />
          </mxGeometry>
        </mxCell>
        <mxCell id="D7f5AKQHRCtzAQtNA1vA-68" value="" style="strokeWidth=1;dashed=0;align=center;fontSize=8;shape=ellipse;perimeter=ellipsePerimeter;whiteSpace=wrap;html=1;aspect=fixed;" vertex="1" parent="D7f5AKQHRCtzAQtNA1vA-107">
          <mxGeometry x="4" y="24.30612244897958" width="18.040816326530614" height="12.489795918367347" as="geometry" />
        </mxCell>
        <mxCell id="D7f5AKQHRCtzAQtNA1vA-69" value="..." style="strokeWidth=1;dashed=0;align=center;fontSize=12;shape=ellipse;perimeter=ellipsePerimeter;whiteSpace=wrap;html=1;aspect=fixed;strokeColor=none;" vertex="1" parent="D7f5AKQHRCtzAQtNA1vA-107">
          <mxGeometry x="77.33333333333337" y="25" width="18.040816326530614" height="12.489795918367347" as="geometry" />
        </mxCell>
        <mxCell id="D7f5AKQHRCtzAQtNA1vA-70" value="" style="strokeWidth=1;dashed=0;align=center;fontSize=8;shape=ellipse;perimeter=ellipsePerimeter;whiteSpace=wrap;html=1;aspect=fixed;" vertex="1" parent="D7f5AKQHRCtzAQtNA1vA-107">
          <mxGeometry x="43.166666666666686" y="25" width="18.040816326530614" height="12.489795918367347" as="geometry" />
        </mxCell>
        <mxCell id="D7f5AKQHRCtzAQtNA1vA-71" value="" style="edgeStyle=none;endArrow=none;dashed=0;html=1;strokeWidth=1;rounded=0;" edge="1" parent="D7f5AKQHRCtzAQtNA1vA-107" source="D7f5AKQHRCtzAQtNA1vA-70" target="D7f5AKQHRCtzAQtNA1vA-68">
          <mxGeometry relative="1" as="geometry" />
        </mxCell>
        <mxCell id="D7f5AKQHRCtzAQtNA1vA-72" value="" style="edgeStyle=none;endArrow=none;dashed=0;html=1;strokeWidth=1;rounded=0;" edge="1" parent="D7f5AKQHRCtzAQtNA1vA-107" source="D7f5AKQHRCtzAQtNA1vA-70">
          <mxGeometry relative="1" as="geometry">
            <mxPoint x="74" y="31.309795918367342" as="targetPoint" />
          </mxGeometry>
        </mxCell>
        <mxCell id="D7f5AKQHRCtzAQtNA1vA-73" value="" style="strokeWidth=1;dashed=0;align=center;fontSize=8;shape=ellipse;perimeter=ellipsePerimeter;whiteSpace=wrap;html=1;aspect=fixed;" vertex="1" parent="D7f5AKQHRCtzAQtNA1vA-107">
          <mxGeometry x="110.13" y="24.996122448979577" width="18.040816326530614" height="12.489795918367347" as="geometry" />
        </mxCell>
        <mxCell id="D7f5AKQHRCtzAQtNA1vA-74" value="" style="strokeWidth=1;dashed=0;align=center;fontSize=8;shape=ellipse;perimeter=ellipsePerimeter;whiteSpace=wrap;html=1;aspect=fixed;" vertex="1" parent="D7f5AKQHRCtzAQtNA1vA-107">
          <mxGeometry x="150.29666666666668" y="25.689999999999998" width="18.040816326530614" height="12.489795918367347" as="geometry" />
        </mxCell>
        <mxCell id="D7f5AKQHRCtzAQtNA1vA-75" value="" style="edgeStyle=none;endArrow=none;dashed=0;html=1;strokeWidth=1;rounded=0;" edge="1" parent="D7f5AKQHRCtzAQtNA1vA-107" target="D7f5AKQHRCtzAQtNA1vA-73">
          <mxGeometry relative="1" as="geometry">
            <mxPoint x="149.2992794695988" y="31.78460136984478" as="sourcePoint" />
          </mxGeometry>
        </mxCell>
        <mxCell id="D7f5AKQHRCtzAQtNA1vA-76" value="" style="edgeStyle=none;endArrow=none;dashed=0;html=1;strokeWidth=1;rounded=0;" edge="1" parent="D7f5AKQHRCtzAQtNA1vA-107">
          <mxGeometry relative="1" as="geometry">
            <mxPoint x="97" y="31.309795918367342" as="sourcePoint" />
            <mxPoint x="110" y="31.309795918367342" as="targetPoint" />
          </mxGeometry>
        </mxCell>
        <mxCell id="D7f5AKQHRCtzAQtNA1vA-86" value="" style="strokeWidth=1;dashed=0;align=center;fontSize=8;shape=ellipse;perimeter=ellipsePerimeter;whiteSpace=wrap;html=1;aspect=fixed;" vertex="1" parent="D7f5AKQHRCtzAQtNA1vA-107">
          <mxGeometry x="5" y="47.30612244897958" width="18.040816326530614" height="12.489795918367347" as="geometry" />
        </mxCell>
        <mxCell id="D7f5AKQHRCtzAQtNA1vA-87" value="..." style="strokeWidth=1;dashed=0;align=center;fontSize=12;shape=ellipse;perimeter=ellipsePerimeter;whiteSpace=wrap;html=1;aspect=fixed;strokeColor=none;" vertex="1" parent="D7f5AKQHRCtzAQtNA1vA-107">
          <mxGeometry x="78.33333333333337" y="45" width="18.040816326530614" height="12.489795918367347" as="geometry" />
        </mxCell>
        <mxCell id="D7f5AKQHRCtzAQtNA1vA-88" value="" style="strokeWidth=1;dashed=0;align=center;fontSize=8;shape=ellipse;perimeter=ellipsePerimeter;whiteSpace=wrap;html=1;aspect=fixed;" vertex="1" parent="D7f5AKQHRCtzAQtNA1vA-107">
          <mxGeometry x="44.166666666666686" y="48" width="18.040816326530614" height="12.489795918367347" as="geometry" />
        </mxCell>
        <mxCell id="D7f5AKQHRCtzAQtNA1vA-89" value="" style="edgeStyle=none;endArrow=none;dashed=0;html=1;strokeWidth=1;rounded=0;" edge="1" parent="D7f5AKQHRCtzAQtNA1vA-107" source="D7f5AKQHRCtzAQtNA1vA-88" target="D7f5AKQHRCtzAQtNA1vA-86">
          <mxGeometry relative="1" as="geometry" />
        </mxCell>
        <mxCell id="D7f5AKQHRCtzAQtNA1vA-90" value="" style="edgeStyle=none;endArrow=none;dashed=0;html=1;strokeWidth=1;rounded=0;" edge="1" parent="D7f5AKQHRCtzAQtNA1vA-107" source="D7f5AKQHRCtzAQtNA1vA-88">
          <mxGeometry relative="1" as="geometry">
            <mxPoint x="75" y="54.30979591836734" as="targetPoint" />
          </mxGeometry>
        </mxCell>
        <mxCell id="D7f5AKQHRCtzAQtNA1vA-91" value="" style="strokeWidth=1;dashed=0;align=center;fontSize=8;shape=ellipse;perimeter=ellipsePerimeter;whiteSpace=wrap;html=1;aspect=fixed;" vertex="1" parent="D7f5AKQHRCtzAQtNA1vA-107">
          <mxGeometry x="111.13" y="47.99612244897958" width="18.040816326530614" height="12.489795918367347" as="geometry" />
        </mxCell>
        <mxCell id="D7f5AKQHRCtzAQtNA1vA-92" value="" style="strokeWidth=1;dashed=0;align=center;fontSize=8;shape=ellipse;perimeter=ellipsePerimeter;whiteSpace=wrap;html=1;aspect=fixed;" vertex="1" parent="D7f5AKQHRCtzAQtNA1vA-107">
          <mxGeometry x="150.29666666666668" y="48.69" width="18.040816326530614" height="12.489795918367347" as="geometry" />
        </mxCell>
        <mxCell id="D7f5AKQHRCtzAQtNA1vA-93" value="" style="edgeStyle=none;endArrow=none;dashed=0;html=1;strokeWidth=1;rounded=0;" edge="1" parent="D7f5AKQHRCtzAQtNA1vA-107" source="D7f5AKQHRCtzAQtNA1vA-92" target="D7f5AKQHRCtzAQtNA1vA-91">
          <mxGeometry relative="1" as="geometry" />
        </mxCell>
        <mxCell id="D7f5AKQHRCtzAQtNA1vA-94" value="" style="edgeStyle=none;endArrow=none;dashed=0;html=1;strokeWidth=1;rounded=0;" edge="1" parent="D7f5AKQHRCtzAQtNA1vA-107">
          <mxGeometry relative="1" as="geometry">
            <mxPoint x="98" y="54.30979591836734" as="sourcePoint" />
            <mxPoint x="111" y="54.30979591836734" as="targetPoint" />
          </mxGeometry>
        </mxCell>
        <mxCell id="D7f5AKQHRCtzAQtNA1vA-95" value="" style="strokeWidth=1;dashed=0;align=center;fontSize=8;shape=ellipse;perimeter=ellipsePerimeter;whiteSpace=wrap;html=1;aspect=fixed;" vertex="1" parent="D7f5AKQHRCtzAQtNA1vA-107">
          <mxGeometry x="4" y="69.30612244897958" width="18.040816326530614" height="12.489795918367347" as="geometry" />
        </mxCell>
        <mxCell id="D7f5AKQHRCtzAQtNA1vA-96" value="..." style="strokeWidth=1;dashed=0;align=center;fontSize=12;shape=ellipse;perimeter=ellipsePerimeter;whiteSpace=wrap;html=1;aspect=fixed;strokeColor=none;" vertex="1" parent="D7f5AKQHRCtzAQtNA1vA-107">
          <mxGeometry x="77.33333333333337" y="70" width="18.040816326530614" height="12.489795918367347" as="geometry" />
        </mxCell>
        <mxCell id="D7f5AKQHRCtzAQtNA1vA-97" value="" style="strokeWidth=1;dashed=0;align=center;fontSize=8;shape=ellipse;perimeter=ellipsePerimeter;whiteSpace=wrap;html=1;aspect=fixed;" vertex="1" parent="D7f5AKQHRCtzAQtNA1vA-107">
          <mxGeometry x="43.166666666666686" y="70" width="18.040816326530614" height="12.489795918367347" as="geometry" />
        </mxCell>
        <mxCell id="D7f5AKQHRCtzAQtNA1vA-98" value="" style="edgeStyle=none;endArrow=none;dashed=0;html=1;strokeWidth=1;rounded=0;" edge="1" parent="D7f5AKQHRCtzAQtNA1vA-107" source="D7f5AKQHRCtzAQtNA1vA-97" target="D7f5AKQHRCtzAQtNA1vA-95">
          <mxGeometry relative="1" as="geometry" />
        </mxCell>
        <mxCell id="D7f5AKQHRCtzAQtNA1vA-99" value="" style="edgeStyle=none;endArrow=none;dashed=0;html=1;strokeWidth=1;rounded=0;" edge="1" parent="D7f5AKQHRCtzAQtNA1vA-107" source="D7f5AKQHRCtzAQtNA1vA-97">
          <mxGeometry relative="1" as="geometry">
            <mxPoint x="74" y="76.30979591836734" as="targetPoint" />
          </mxGeometry>
        </mxCell>
        <mxCell id="D7f5AKQHRCtzAQtNA1vA-100" value="" style="strokeWidth=1;dashed=0;align=center;fontSize=8;shape=ellipse;perimeter=ellipsePerimeter;whiteSpace=wrap;html=1;aspect=fixed;" vertex="1" parent="D7f5AKQHRCtzAQtNA1vA-107">
          <mxGeometry x="110.13" y="69.99612244897958" width="18.040816326530614" height="12.489795918367347" as="geometry" />
        </mxCell>
        <mxCell id="D7f5AKQHRCtzAQtNA1vA-101" value="" style="strokeWidth=1;dashed=0;align=center;fontSize=8;shape=ellipse;perimeter=ellipsePerimeter;whiteSpace=wrap;html=1;aspect=fixed;" vertex="1" parent="D7f5AKQHRCtzAQtNA1vA-107">
          <mxGeometry x="149.29666666666668" y="70.69" width="18.040816326530614" height="12.489795918367347" as="geometry" />
        </mxCell>
        <mxCell id="D7f5AKQHRCtzAQtNA1vA-102" value="" style="edgeStyle=none;endArrow=none;dashed=0;html=1;strokeWidth=1;rounded=0;" edge="1" parent="D7f5AKQHRCtzAQtNA1vA-107" source="D7f5AKQHRCtzAQtNA1vA-101" target="D7f5AKQHRCtzAQtNA1vA-100">
          <mxGeometry relative="1" as="geometry" />
        </mxCell>
        <mxCell id="D7f5AKQHRCtzAQtNA1vA-103" value="" style="edgeStyle=none;endArrow=none;dashed=0;html=1;strokeWidth=1;rounded=0;" edge="1" parent="D7f5AKQHRCtzAQtNA1vA-107">
          <mxGeometry relative="1" as="geometry">
            <mxPoint x="97" y="76.30979591836734" as="sourcePoint" />
            <mxPoint x="110" y="76.30979591836734" as="targetPoint" />
          </mxGeometry>
        </mxCell>
        <mxCell id="D7f5AKQHRCtzAQtNA1vA-104" value="" style="shape=curlyBracket;html=1;rounded=1;labelPosition=left;verticalLabelPosition=middle;align=right;verticalAlign=middle;rotation=-90;textDirection=ltr;" vertex="1" parent="D7f5AKQHRCtzAQtNA1vA-107">
          <mxGeometry x="78.5" y="7.809795918367342" width="13" height="170" as="geometry" />
        </mxCell>
        <mxCell id="D7f5AKQHRCtzAQtNA1vA-105" value="&lt;font style=&quot;font-size: 10px;&quot;&gt;&lt;i&gt;128 root nodes + empty leaves&lt;/i&gt;&lt;/font&gt;" style="text;html=1;align=center;verticalAlign=middle;resizable=0;points=[];autosize=1;strokeColor=none;fillColor=none;" vertex="1" parent="D7f5AKQHRCtzAQtNA1vA-107">
          <mxGeometry x="2" y="93.30979591836734" width="170" height="30" as="geometry" />
        </mxCell>
        <mxCell id="D7f5AKQHRCtzAQtNA1vA-109" value="" style="group" vertex="1" connectable="0" parent="WIyWlLk6GJQsqaUBKTNV-1">
          <mxGeometry x="450" y="270" width="190" height="140" as="geometry" />
        </mxCell>
        <mxCell id="D7f5AKQHRCtzAQtNA1vA-110" value="&lt;font style=&quot;font-size: 10px;&quot;&gt;Dataset of chain token &lt;br&gt;graphs (syntactic info)&lt;/font&gt;" style="rounded=0;whiteSpace=wrap;html=1;labelPosition=center;verticalLabelPosition=bottom;align=center;verticalAlign=top;dashed=1;" vertex="1" parent="D7f5AKQHRCtzAQtNA1vA-109">
          <mxGeometry width="190" height="140" as="geometry" />
        </mxCell>
        <mxCell id="D7f5AKQHRCtzAQtNA1vA-111" value="" style="group;fontStyle=4" vertex="1" connectable="0" parent="D7f5AKQHRCtzAQtNA1vA-109">
          <mxGeometry x="8" y="7.690204081632658" width="170" height="123.30979591836734" as="geometry" />
        </mxCell>
        <mxCell id="D7f5AKQHRCtzAQtNA1vA-112" value="" style="strokeWidth=1;dashed=0;align=center;fontSize=8;shape=ellipse;perimeter=ellipsePerimeter;whiteSpace=wrap;html=1;aspect=fixed;" vertex="1" parent="D7f5AKQHRCtzAQtNA1vA-111">
          <mxGeometry x="5" y="2.306122448979579" width="18.040816326530614" height="12.489795918367347" as="geometry" />
        </mxCell>
        <mxCell id="D7f5AKQHRCtzAQtNA1vA-113" value="..." style="strokeWidth=1;dashed=0;align=center;fontSize=12;shape=ellipse;perimeter=ellipsePerimeter;whiteSpace=wrap;html=1;aspect=fixed;strokeColor=none;" vertex="1" parent="D7f5AKQHRCtzAQtNA1vA-111">
          <mxGeometry x="79.33333333333337" width="18.040816326530614" height="12.489795918367347" as="geometry" />
        </mxCell>
        <mxCell id="D7f5AKQHRCtzAQtNA1vA-114" value="" style="strokeWidth=1;dashed=0;align=center;fontSize=8;shape=ellipse;perimeter=ellipsePerimeter;whiteSpace=wrap;html=1;aspect=fixed;" vertex="1" parent="D7f5AKQHRCtzAQtNA1vA-111">
          <mxGeometry x="44.166666666666686" y="3" width="18.040816326530614" height="12.489795918367347" as="geometry" />
        </mxCell>
        <mxCell id="D7f5AKQHRCtzAQtNA1vA-117" value="" style="strokeWidth=1;dashed=0;align=center;fontSize=8;shape=ellipse;perimeter=ellipsePerimeter;whiteSpace=wrap;html=1;aspect=fixed;" vertex="1" parent="D7f5AKQHRCtzAQtNA1vA-111">
          <mxGeometry x="111.13" y="2.996122448979577" width="18.040816326530614" height="12.489795918367347" as="geometry" />
        </mxCell>
        <mxCell id="D7f5AKQHRCtzAQtNA1vA-118" value="" style="strokeWidth=1;dashed=0;align=center;fontSize=8;shape=ellipse;perimeter=ellipsePerimeter;whiteSpace=wrap;html=1;aspect=fixed;" vertex="1" parent="D7f5AKQHRCtzAQtNA1vA-111">
          <mxGeometry x="150.29666666666668" y="3.6899999999999977" width="18.040816326530614" height="12.489795918367347" as="geometry" />
        </mxCell>
        <mxCell id="D7f5AKQHRCtzAQtNA1vA-119" value="" style="edgeStyle=none;endArrow=none;dashed=0;html=1;strokeWidth=1;rounded=0;" edge="1" parent="D7f5AKQHRCtzAQtNA1vA-111" source="D7f5AKQHRCtzAQtNA1vA-118" target="D7f5AKQHRCtzAQtNA1vA-117">
          <mxGeometry relative="1" as="geometry" />
        </mxCell>
        <mxCell id="D7f5AKQHRCtzAQtNA1vA-120" value="" style="edgeStyle=none;endArrow=none;dashed=0;html=1;strokeWidth=1;rounded=0;" edge="1" parent="D7f5AKQHRCtzAQtNA1vA-111">
          <mxGeometry relative="1" as="geometry">
            <mxPoint x="98" y="9.309795918367342" as="sourcePoint" />
            <mxPoint x="111" y="9.309795918367342" as="targetPoint" />
          </mxGeometry>
        </mxCell>
        <mxCell id="D7f5AKQHRCtzAQtNA1vA-151" style="edgeStyle=orthogonalEdgeStyle;rounded=0;orthogonalLoop=1;jettySize=auto;html=1;exitX=0.5;exitY=0;exitDx=0;exitDy=0;entryX=0.5;entryY=1;entryDx=0;entryDy=0;endArrow=none;endFill=0;" edge="1" parent="D7f5AKQHRCtzAQtNA1vA-111" source="D7f5AKQHRCtzAQtNA1vA-121" target="D7f5AKQHRCtzAQtNA1vA-112">
          <mxGeometry relative="1" as="geometry" />
        </mxCell>
        <mxCell id="D7f5AKQHRCtzAQtNA1vA-121" value="" style="strokeWidth=1;dashed=0;align=center;fontSize=8;shape=ellipse;perimeter=ellipsePerimeter;whiteSpace=wrap;html=1;aspect=fixed;" vertex="1" parent="D7f5AKQHRCtzAQtNA1vA-111">
          <mxGeometry x="4" y="24.30612244897958" width="18.040816326530614" height="12.489795918367347" as="geometry" />
        </mxCell>
        <mxCell id="D7f5AKQHRCtzAQtNA1vA-122" value="..." style="strokeWidth=1;dashed=0;align=center;fontSize=12;shape=ellipse;perimeter=ellipsePerimeter;whiteSpace=wrap;html=1;aspect=fixed;strokeColor=none;" vertex="1" parent="D7f5AKQHRCtzAQtNA1vA-111">
          <mxGeometry x="77.33333333333337" y="25" width="18.040816326530614" height="12.489795918367347" as="geometry" />
        </mxCell>
        <mxCell id="D7f5AKQHRCtzAQtNA1vA-150" style="edgeStyle=orthogonalEdgeStyle;rounded=0;orthogonalLoop=1;jettySize=auto;html=1;exitX=0.5;exitY=0;exitDx=0;exitDy=0;entryX=0.5;entryY=1;entryDx=0;entryDy=0;endArrow=none;endFill=0;" edge="1" parent="D7f5AKQHRCtzAQtNA1vA-111" source="D7f5AKQHRCtzAQtNA1vA-123" target="D7f5AKQHRCtzAQtNA1vA-114">
          <mxGeometry relative="1" as="geometry" />
        </mxCell>
        <mxCell id="D7f5AKQHRCtzAQtNA1vA-123" value="" style="strokeWidth=1;dashed=0;align=center;fontSize=8;shape=ellipse;perimeter=ellipsePerimeter;whiteSpace=wrap;html=1;aspect=fixed;" vertex="1" parent="D7f5AKQHRCtzAQtNA1vA-111">
          <mxGeometry x="43.166666666666686" y="25" width="18.040816326530614" height="12.489795918367347" as="geometry" />
        </mxCell>
        <mxCell id="D7f5AKQHRCtzAQtNA1vA-124" value="" style="edgeStyle=none;endArrow=none;dashed=0;html=1;strokeWidth=1;rounded=0;" edge="1" parent="D7f5AKQHRCtzAQtNA1vA-111" source="D7f5AKQHRCtzAQtNA1vA-123" target="D7f5AKQHRCtzAQtNA1vA-121">
          <mxGeometry relative="1" as="geometry" />
        </mxCell>
        <mxCell id="D7f5AKQHRCtzAQtNA1vA-125" value="" style="edgeStyle=none;endArrow=none;dashed=0;html=1;strokeWidth=1;rounded=0;" edge="1" parent="D7f5AKQHRCtzAQtNA1vA-111" source="D7f5AKQHRCtzAQtNA1vA-123">
          <mxGeometry relative="1" as="geometry">
            <mxPoint x="74" y="31.309795918367342" as="targetPoint" />
          </mxGeometry>
        </mxCell>
        <mxCell id="D7f5AKQHRCtzAQtNA1vA-126" value="" style="strokeWidth=1;dashed=0;align=center;fontSize=8;shape=ellipse;perimeter=ellipsePerimeter;whiteSpace=wrap;html=1;aspect=fixed;" vertex="1" parent="D7f5AKQHRCtzAQtNA1vA-111">
          <mxGeometry x="110.13" y="24.996122448979577" width="18.040816326530614" height="12.489795918367347" as="geometry" />
        </mxCell>
        <mxCell id="D7f5AKQHRCtzAQtNA1vA-127" value="" style="strokeWidth=1;dashed=0;align=center;fontSize=8;shape=ellipse;perimeter=ellipsePerimeter;whiteSpace=wrap;html=1;aspect=fixed;" vertex="1" parent="D7f5AKQHRCtzAQtNA1vA-111">
          <mxGeometry x="150.29666666666668" y="25.689999999999998" width="18.040816326530614" height="12.489795918367347" as="geometry" />
        </mxCell>
        <mxCell id="D7f5AKQHRCtzAQtNA1vA-128" value="" style="edgeStyle=none;endArrow=none;dashed=0;html=1;strokeWidth=1;rounded=0;" edge="1" parent="D7f5AKQHRCtzAQtNA1vA-111" target="D7f5AKQHRCtzAQtNA1vA-126">
          <mxGeometry relative="1" as="geometry">
            <mxPoint x="149.2992794695988" y="31.78460136984478" as="sourcePoint" />
          </mxGeometry>
        </mxCell>
        <mxCell id="D7f5AKQHRCtzAQtNA1vA-129" value="" style="edgeStyle=none;endArrow=none;dashed=0;html=1;strokeWidth=1;rounded=0;" edge="1" parent="D7f5AKQHRCtzAQtNA1vA-111">
          <mxGeometry relative="1" as="geometry">
            <mxPoint x="97" y="31.309795918367342" as="sourcePoint" />
            <mxPoint x="110" y="31.309795918367342" as="targetPoint" />
          </mxGeometry>
        </mxCell>
        <mxCell id="D7f5AKQHRCtzAQtNA1vA-130" value="" style="strokeWidth=1;dashed=0;align=center;fontSize=8;shape=ellipse;perimeter=ellipsePerimeter;whiteSpace=wrap;html=1;aspect=fixed;" vertex="1" parent="D7f5AKQHRCtzAQtNA1vA-111">
          <mxGeometry x="5" y="47.30612244897958" width="18.040816326530614" height="12.489795918367347" as="geometry" />
        </mxCell>
        <mxCell id="D7f5AKQHRCtzAQtNA1vA-131" value="..." style="strokeWidth=1;dashed=0;align=center;fontSize=12;shape=ellipse;perimeter=ellipsePerimeter;whiteSpace=wrap;html=1;aspect=fixed;strokeColor=none;" vertex="1" parent="D7f5AKQHRCtzAQtNA1vA-111">
          <mxGeometry x="78.33333333333337" y="45" width="18.040816326530614" height="12.489795918367347" as="geometry" />
        </mxCell>
        <mxCell id="D7f5AKQHRCtzAQtNA1vA-132" value="" style="strokeWidth=1;dashed=0;align=center;fontSize=8;shape=ellipse;perimeter=ellipsePerimeter;whiteSpace=wrap;html=1;aspect=fixed;" vertex="1" parent="D7f5AKQHRCtzAQtNA1vA-111">
          <mxGeometry x="44.166666666666686" y="48" width="18.040816326530614" height="12.489795918367347" as="geometry" />
        </mxCell>
        <mxCell id="D7f5AKQHRCtzAQtNA1vA-133" value="" style="edgeStyle=none;endArrow=none;dashed=0;html=1;strokeWidth=1;rounded=0;exitX=0.5;exitY=1;exitDx=0;exitDy=0;" edge="1" parent="D7f5AKQHRCtzAQtNA1vA-111" source="D7f5AKQHRCtzAQtNA1vA-121" target="D7f5AKQHRCtzAQtNA1vA-130">
          <mxGeometry relative="1" as="geometry" />
        </mxCell>
        <mxCell id="D7f5AKQHRCtzAQtNA1vA-134" value="" style="edgeStyle=none;endArrow=none;dashed=0;html=1;strokeWidth=1;rounded=0;" edge="1" parent="D7f5AKQHRCtzAQtNA1vA-111" source="D7f5AKQHRCtzAQtNA1vA-132">
          <mxGeometry relative="1" as="geometry">
            <mxPoint x="75" y="54.30979591836734" as="targetPoint" />
          </mxGeometry>
        </mxCell>
        <mxCell id="D7f5AKQHRCtzAQtNA1vA-135" value="" style="strokeWidth=1;dashed=0;align=center;fontSize=8;shape=ellipse;perimeter=ellipsePerimeter;whiteSpace=wrap;html=1;aspect=fixed;" vertex="1" parent="D7f5AKQHRCtzAQtNA1vA-111">
          <mxGeometry x="111.13" y="47.99612244897958" width="18.040816326530614" height="12.489795918367347" as="geometry" />
        </mxCell>
        <mxCell id="D7f5AKQHRCtzAQtNA1vA-136" value="" style="strokeWidth=1;dashed=0;align=center;fontSize=8;shape=ellipse;perimeter=ellipsePerimeter;whiteSpace=wrap;html=1;aspect=fixed;" vertex="1" parent="D7f5AKQHRCtzAQtNA1vA-111">
          <mxGeometry x="150.29666666666668" y="48.69" width="18.040816326530614" height="12.489795918367347" as="geometry" />
        </mxCell>
        <mxCell id="D7f5AKQHRCtzAQtNA1vA-137" value="" style="edgeStyle=none;endArrow=none;dashed=0;html=1;strokeWidth=1;rounded=0;" edge="1" parent="D7f5AKQHRCtzAQtNA1vA-111" source="D7f5AKQHRCtzAQtNA1vA-136" target="D7f5AKQHRCtzAQtNA1vA-135">
          <mxGeometry relative="1" as="geometry" />
        </mxCell>
        <mxCell id="D7f5AKQHRCtzAQtNA1vA-138" value="" style="edgeStyle=none;endArrow=none;dashed=0;html=1;strokeWidth=1;rounded=0;" edge="1" parent="D7f5AKQHRCtzAQtNA1vA-111">
          <mxGeometry relative="1" as="geometry">
            <mxPoint x="98" y="54.30979591836734" as="sourcePoint" />
            <mxPoint x="111" y="54.30979591836734" as="targetPoint" />
          </mxGeometry>
        </mxCell>
        <mxCell id="D7f5AKQHRCtzAQtNA1vA-139" value="" style="strokeWidth=1;dashed=0;align=center;fontSize=8;shape=ellipse;perimeter=ellipsePerimeter;whiteSpace=wrap;html=1;aspect=fixed;" vertex="1" parent="D7f5AKQHRCtzAQtNA1vA-111">
          <mxGeometry x="4" y="69.30612244897958" width="18.040816326530614" height="12.489795918367347" as="geometry" />
        </mxCell>
        <mxCell id="D7f5AKQHRCtzAQtNA1vA-140" value="..." style="strokeWidth=1;dashed=0;align=center;fontSize=12;shape=ellipse;perimeter=ellipsePerimeter;whiteSpace=wrap;html=1;aspect=fixed;strokeColor=none;" vertex="1" parent="D7f5AKQHRCtzAQtNA1vA-111">
          <mxGeometry x="77.33333333333337" y="70" width="18.040816326530614" height="12.489795918367347" as="geometry" />
        </mxCell>
        <mxCell id="D7f5AKQHRCtzAQtNA1vA-141" value="" style="strokeWidth=1;dashed=0;align=center;fontSize=8;shape=ellipse;perimeter=ellipsePerimeter;whiteSpace=wrap;html=1;aspect=fixed;" vertex="1" parent="D7f5AKQHRCtzAQtNA1vA-111">
          <mxGeometry x="43.166666666666686" y="70" width="18.040816326530614" height="12.489795918367347" as="geometry" />
        </mxCell>
        <mxCell id="D7f5AKQHRCtzAQtNA1vA-142" value="" style="edgeStyle=none;endArrow=none;dashed=0;html=1;strokeWidth=1;rounded=0;" edge="1" parent="D7f5AKQHRCtzAQtNA1vA-111" source="D7f5AKQHRCtzAQtNA1vA-141" target="D7f5AKQHRCtzAQtNA1vA-139">
          <mxGeometry relative="1" as="geometry" />
        </mxCell>
        <mxCell id="D7f5AKQHRCtzAQtNA1vA-143" value="" style="edgeStyle=none;endArrow=none;dashed=0;html=1;strokeWidth=1;rounded=0;" edge="1" parent="D7f5AKQHRCtzAQtNA1vA-111" source="D7f5AKQHRCtzAQtNA1vA-141">
          <mxGeometry relative="1" as="geometry">
            <mxPoint x="74" y="76.30979591836734" as="targetPoint" />
          </mxGeometry>
        </mxCell>
        <mxCell id="D7f5AKQHRCtzAQtNA1vA-144" value="" style="strokeWidth=1;dashed=0;align=center;fontSize=8;shape=ellipse;perimeter=ellipsePerimeter;whiteSpace=wrap;html=1;aspect=fixed;" vertex="1" parent="D7f5AKQHRCtzAQtNA1vA-111">
          <mxGeometry x="110.13" y="69.99612244897958" width="18.040816326530614" height="12.489795918367347" as="geometry" />
        </mxCell>
        <mxCell id="D7f5AKQHRCtzAQtNA1vA-145" value="" style="strokeWidth=1;dashed=0;align=center;fontSize=8;shape=ellipse;perimeter=ellipsePerimeter;whiteSpace=wrap;html=1;aspect=fixed;" vertex="1" parent="D7f5AKQHRCtzAQtNA1vA-111">
          <mxGeometry x="149.29666666666668" y="70.69" width="18.040816326530614" height="12.489795918367347" as="geometry" />
        </mxCell>
        <mxCell id="D7f5AKQHRCtzAQtNA1vA-146" value="" style="edgeStyle=none;endArrow=none;dashed=0;html=1;strokeWidth=1;rounded=0;" edge="1" parent="D7f5AKQHRCtzAQtNA1vA-111" source="D7f5AKQHRCtzAQtNA1vA-145" target="D7f5AKQHRCtzAQtNA1vA-144">
          <mxGeometry relative="1" as="geometry" />
        </mxCell>
        <mxCell id="D7f5AKQHRCtzAQtNA1vA-147" value="" style="edgeStyle=none;endArrow=none;dashed=0;html=1;strokeWidth=1;rounded=0;" edge="1" parent="D7f5AKQHRCtzAQtNA1vA-111">
          <mxGeometry relative="1" as="geometry">
            <mxPoint x="97" y="76.30979591836734" as="sourcePoint" />
            <mxPoint x="110" y="76.30979591836734" as="targetPoint" />
          </mxGeometry>
        </mxCell>
        <mxCell id="D7f5AKQHRCtzAQtNA1vA-148" value="" style="shape=curlyBracket;html=1;rounded=1;labelPosition=left;verticalLabelPosition=middle;align=right;verticalAlign=middle;rotation=-90;textDirection=ltr;" vertex="1" parent="D7f5AKQHRCtzAQtNA1vA-111">
          <mxGeometry x="78.5" y="7.809795918367342" width="13" height="170" as="geometry" />
        </mxCell>
        <mxCell id="D7f5AKQHRCtzAQtNA1vA-149" value="&lt;font style=&quot;font-size: 10px;&quot;&gt;&lt;i&gt;128 root nodes with leaves&lt;/i&gt;&lt;/font&gt;" style="text;html=1;align=center;verticalAlign=middle;resizable=0;points=[];autosize=1;strokeColor=none;fillColor=none;" vertex="1" parent="D7f5AKQHRCtzAQtNA1vA-111">
          <mxGeometry x="12" y="93.30979591836734" width="150" height="30" as="geometry" />
        </mxCell>
        <mxCell id="D7f5AKQHRCtzAQtNA1vA-209" value="" style="group" vertex="1" connectable="0" parent="WIyWlLk6GJQsqaUBKTNV-1">
          <mxGeometry x="501" y="103.79" width="129" height="86.21" as="geometry" />
        </mxCell>
        <mxCell id="D7f5AKQHRCtzAQtNA1vA-168" style="edgeStyle=orthogonalEdgeStyle;rounded=0;orthogonalLoop=1;jettySize=auto;html=1;exitX=1;exitY=0;exitDx=0;exitDy=0;entryX=0.5;entryY=1;entryDx=0;entryDy=0;strokeColor=none;" edge="1" parent="D7f5AKQHRCtzAQtNA1vA-209" source="D7f5AKQHRCtzAQtNA1vA-154">
          <mxGeometry relative="1" as="geometry">
            <mxPoint x="42.12170212765975" as="targetPoint" />
          </mxGeometry>
        </mxCell>
        <mxCell id="D7f5AKQHRCtzAQtNA1vA-180" value="" style="group" vertex="1" connectable="0" parent="D7f5AKQHRCtzAQtNA1vA-209">
          <mxGeometry y="20.284705882352995" width="55.808510638297875" height="65.925294117647" as="geometry" />
        </mxCell>
        <mxCell id="D7f5AKQHRCtzAQtNA1vA-153" value="" style="strokeWidth=1;dashed=0;align=center;fontSize=8;shape=ellipse;perimeter=ellipsePerimeter;whiteSpace=wrap;html=1;aspect=fixed;" vertex="1" parent="D7f5AKQHRCtzAQtNA1vA-180">
          <mxGeometry x="1.8297872340425534" y="1.0903029411764869" width="14.711489361702128" height="10.191914893617023" as="geometry" />
        </mxCell>
        <mxCell id="D7f5AKQHRCtzAQtNA1vA-154" value="" style="strokeWidth=1;dashed=0;align=center;fontSize=8;shape=ellipse;perimeter=ellipsePerimeter;whiteSpace=wrap;html=1;aspect=fixed;" vertex="1" parent="D7f5AKQHRCtzAQtNA1vA-180">
          <mxGeometry x="18.608936170212797" y="22.566735294117642" width="16.157021276595746" height="11.180000000000001" as="geometry" />
        </mxCell>
        <mxCell id="D7f5AKQHRCtzAQtNA1vA-155" value="" style="edgeStyle=none;endArrow=none;dashed=0;html=1;strokeWidth=1;rounded=0;" edge="1" parent="D7f5AKQHRCtzAQtNA1vA-180" source="D7f5AKQHRCtzAQtNA1vA-154" target="D7f5AKQHRCtzAQtNA1vA-153">
          <mxGeometry relative="1" as="geometry" />
        </mxCell>
        <mxCell id="D7f5AKQHRCtzAQtNA1vA-179" style="edgeStyle=orthogonalEdgeStyle;rounded=0;orthogonalLoop=1;jettySize=auto;html=1;exitX=0.5;exitY=0;exitDx=0;exitDy=0;entryX=0.5;entryY=1;entryDx=0;entryDy=0;endArrow=none;endFill=0;" edge="1" parent="D7f5AKQHRCtzAQtNA1vA-180" source="D7f5AKQHRCtzAQtNA1vA-159" target="D7f5AKQHRCtzAQtNA1vA-154">
          <mxGeometry relative="1" as="geometry" />
        </mxCell>
        <mxCell id="D7f5AKQHRCtzAQtNA1vA-159" value="" style="strokeWidth=1;dashed=0;align=center;fontSize=8;shape=ellipse;perimeter=ellipsePerimeter;whiteSpace=wrap;html=1;aspect=fixed;" vertex="1" parent="D7f5AKQHRCtzAQtNA1vA-180">
          <mxGeometry x="20.054468085106347" y="51.8020676470588" width="14.711489361702128" height="10.191914893617023" as="geometry" />
        </mxCell>
        <mxCell id="D7f5AKQHRCtzAQtNA1vA-175" value="" style="group;flipV=0;flipH=1;" vertex="1" connectable="0" parent="D7f5AKQHRCtzAQtNA1vA-180">
          <mxGeometry x="32.02127659574469" width="23.787234042553195" height="22.262464705882337" as="geometry" />
        </mxCell>
        <mxCell id="D7f5AKQHRCtzAQtNA1vA-207" style="edgeStyle=orthogonalEdgeStyle;rounded=0;orthogonalLoop=1;jettySize=auto;html=1;exitX=0;exitY=0.5;exitDx=0;exitDy=0;endArrow=none;endFill=0;" edge="1" parent="D7f5AKQHRCtzAQtNA1vA-175" source="D7f5AKQHRCtzAQtNA1vA-173">
          <mxGeometry relative="1" as="geometry">
            <mxPoint x="-15.553191489361703" y="6.660145098039278" as="targetPoint" />
          </mxGeometry>
        </mxCell>
        <mxCell id="D7f5AKQHRCtzAQtNA1vA-173" value="" style="strokeWidth=1;dashed=0;align=center;fontSize=8;shape=ellipse;perimeter=ellipsePerimeter;whiteSpace=wrap;html=1;aspect=fixed;" vertex="1" parent="D7f5AKQHRCtzAQtNA1vA-175">
          <mxGeometry x="5.41617021276596" width="14.711489361702128" height="10.191914893617023" as="geometry" />
        </mxCell>
        <mxCell id="D7f5AKQHRCtzAQtNA1vA-174" value="" style="edgeStyle=none;endArrow=none;dashed=0;html=1;strokeWidth=1;rounded=0;" edge="1" parent="D7f5AKQHRCtzAQtNA1vA-175" target="D7f5AKQHRCtzAQtNA1vA-173">
          <mxGeometry relative="1" as="geometry">
            <mxPoint y="22.262464705882337" as="sourcePoint" />
          </mxGeometry>
        </mxCell>
        <mxCell id="D7f5AKQHRCtzAQtNA1vA-190" value="" style="group" vertex="1" connectable="0" parent="D7f5AKQHRCtzAQtNA1vA-209">
          <mxGeometry x="73.19148936170212" y="20.284705882352995" width="55.808510638297875" height="65.925294117647" as="geometry" />
        </mxCell>
        <mxCell id="D7f5AKQHRCtzAQtNA1vA-203" style="edgeStyle=orthogonalEdgeStyle;rounded=0;orthogonalLoop=1;jettySize=auto;html=1;exitX=1;exitY=0.5;exitDx=0;exitDy=0;entryX=0;entryY=0.5;entryDx=0;entryDy=0;endArrow=none;endFill=0;" edge="1" parent="D7f5AKQHRCtzAQtNA1vA-190" source="D7f5AKQHRCtzAQtNA1vA-191" target="D7f5AKQHRCtzAQtNA1vA-197">
          <mxGeometry relative="1" as="geometry" />
        </mxCell>
        <mxCell id="D7f5AKQHRCtzAQtNA1vA-191" value="" style="strokeWidth=1;dashed=0;align=center;fontSize=8;shape=ellipse;perimeter=ellipsePerimeter;whiteSpace=wrap;html=1;aspect=fixed;" vertex="1" parent="D7f5AKQHRCtzAQtNA1vA-190">
          <mxGeometry x="1.8297872340425534" y="1.0903029411764869" width="14.711489361702128" height="10.191914893617023" as="geometry" />
        </mxCell>
        <mxCell id="D7f5AKQHRCtzAQtNA1vA-243" style="edgeStyle=orthogonalEdgeStyle;rounded=0;orthogonalLoop=1;jettySize=auto;html=1;exitX=1;exitY=0.5;exitDx=0;exitDy=0;endArrow=none;endFill=0;" edge="1" parent="D7f5AKQHRCtzAQtNA1vA-190" source="D7f5AKQHRCtzAQtNA1vA-192">
          <mxGeometry relative="1" as="geometry">
            <mxPoint x="45.80851063829789" y="27.925294117647" as="targetPoint" />
          </mxGeometry>
        </mxCell>
        <mxCell id="D7f5AKQHRCtzAQtNA1vA-192" value="" style="strokeWidth=1;dashed=0;align=center;fontSize=8;shape=ellipse;perimeter=ellipsePerimeter;whiteSpace=wrap;html=1;aspect=fixed;" vertex="1" parent="D7f5AKQHRCtzAQtNA1vA-190">
          <mxGeometry x="20.43872340425535" y="22.566735294117642" width="16.157021276595746" height="11.180000000000001" as="geometry" />
        </mxCell>
        <mxCell id="D7f5AKQHRCtzAQtNA1vA-193" value="" style="edgeStyle=none;endArrow=none;dashed=0;html=1;strokeWidth=1;rounded=0;" edge="1" parent="D7f5AKQHRCtzAQtNA1vA-190" source="D7f5AKQHRCtzAQtNA1vA-192" target="D7f5AKQHRCtzAQtNA1vA-191">
          <mxGeometry relative="1" as="geometry" />
        </mxCell>
        <mxCell id="D7f5AKQHRCtzAQtNA1vA-194" style="edgeStyle=orthogonalEdgeStyle;rounded=0;orthogonalLoop=1;jettySize=auto;html=1;exitX=0.5;exitY=0;exitDx=0;exitDy=0;entryX=0.5;entryY=1;entryDx=0;entryDy=0;endArrow=none;endFill=0;" edge="1" parent="D7f5AKQHRCtzAQtNA1vA-190" source="D7f5AKQHRCtzAQtNA1vA-195" target="D7f5AKQHRCtzAQtNA1vA-192">
          <mxGeometry relative="1" as="geometry" />
        </mxCell>
        <mxCell id="D7f5AKQHRCtzAQtNA1vA-195" value="" style="strokeWidth=1;dashed=0;align=center;fontSize=8;shape=ellipse;perimeter=ellipsePerimeter;whiteSpace=wrap;html=1;aspect=fixed;" vertex="1" parent="D7f5AKQHRCtzAQtNA1vA-190">
          <mxGeometry x="21.884255319148902" y="51.8020676470588" width="14.711489361702128" height="10.191914893617023" as="geometry" />
        </mxCell>
        <mxCell id="D7f5AKQHRCtzAQtNA1vA-196" value="" style="group;flipV=0;flipH=1;" vertex="1" connectable="0" parent="D7f5AKQHRCtzAQtNA1vA-190">
          <mxGeometry x="32.02127659574469" width="23.787234042553195" height="22.262464705882337" as="geometry" />
        </mxCell>
        <mxCell id="D7f5AKQHRCtzAQtNA1vA-197" value="" style="strokeWidth=1;dashed=0;align=center;fontSize=8;shape=ellipse;perimeter=ellipsePerimeter;whiteSpace=wrap;html=1;aspect=fixed;" vertex="1" parent="D7f5AKQHRCtzAQtNA1vA-196">
          <mxGeometry x="5.41617021276596" width="14.711489361702128" height="10.191914893617023" as="geometry" />
        </mxCell>
        <mxCell id="D7f5AKQHRCtzAQtNA1vA-198" value="" style="edgeStyle=none;endArrow=none;dashed=0;html=1;strokeWidth=1;rounded=0;entryX=0.5;entryY=1;entryDx=0;entryDy=0;" edge="1" parent="D7f5AKQHRCtzAQtNA1vA-196" target="D7f5AKQHRCtzAQtNA1vA-197">
          <mxGeometry relative="1" as="geometry">
            <mxPoint x="1.8297872340425534" y="22.262464705882337" as="sourcePoint" />
            <mxPoint x="10.035654798441996" y="12.598002229089396" as="targetPoint" />
          </mxGeometry>
        </mxCell>
        <mxCell id="D7f5AKQHRCtzAQtNA1vA-199" style="edgeStyle=orthogonalEdgeStyle;rounded=0;orthogonalLoop=1;jettySize=auto;html=1;exitX=1;exitY=0.5;exitDx=0;exitDy=0;entryX=0;entryY=0.5;entryDx=0;entryDy=0;endArrow=none;endFill=0;" edge="1" parent="D7f5AKQHRCtzAQtNA1vA-209" source="D7f5AKQHRCtzAQtNA1vA-154" target="D7f5AKQHRCtzAQtNA1vA-192">
          <mxGeometry relative="1" as="geometry" />
        </mxCell>
        <mxCell id="D7f5AKQHRCtzAQtNA1vA-202" style="edgeStyle=orthogonalEdgeStyle;rounded=0;orthogonalLoop=1;jettySize=auto;html=1;exitX=1;exitY=0.5;exitDx=0;exitDy=0;entryX=0;entryY=0.5;entryDx=0;entryDy=0;endArrow=none;endFill=0;" edge="1" parent="D7f5AKQHRCtzAQtNA1vA-209" source="D7f5AKQHRCtzAQtNA1vA-173" target="D7f5AKQHRCtzAQtNA1vA-191">
          <mxGeometry relative="1" as="geometry" />
        </mxCell>
        <mxCell id="D7f5AKQHRCtzAQtNA1vA-210" style="edgeStyle=orthogonalEdgeStyle;rounded=0;orthogonalLoop=1;jettySize=auto;html=1;exitX=1;exitY=0.5;exitDx=0;exitDy=0;entryX=0;entryY=0.5;entryDx=0;entryDy=0;endArrow=none;endFill=0;" edge="1" parent="D7f5AKQHRCtzAQtNA1vA-209" source="D7f5AKQHRCtzAQtNA1vA-159" target="D7f5AKQHRCtzAQtNA1vA-195">
          <mxGeometry relative="1" as="geometry">
            <mxPoint x="89" y="77.21" as="targetPoint" />
          </mxGeometry>
        </mxCell>
        <mxCell id="D7f5AKQHRCtzAQtNA1vA-238" value="" style="curved=1;endArrow=none;html=1;rounded=0;endFill=0;entryX=0;entryY=0.5;entryDx=0;entryDy=0;" edge="1" parent="WIyWlLk6GJQsqaUBKTNV-1" target="D7f5AKQHRCtzAQtNA1vA-153">
          <mxGeometry width="50" height="50" relative="1" as="geometry">
            <mxPoint x="520" y="180" as="sourcePoint" />
            <mxPoint x="501" y="131.94" as="targetPoint" />
            <Array as="points">
              <mxPoint x="510" y="170" />
              <mxPoint x="500" y="150" />
            </Array>
          </mxGeometry>
        </mxCell>
        <mxCell id="D7f5AKQHRCtzAQtNA1vA-239" value="" style="curved=1;endArrow=none;html=1;rounded=0;endFill=0;entryX=0;entryY=0.5;entryDx=0;entryDy=0;" edge="1" parent="WIyWlLk6GJQsqaUBKTNV-1">
          <mxGeometry width="50" height="50" relative="1" as="geometry">
            <mxPoint x="535" y="182" as="sourcePoint" />
            <mxPoint x="552" y="132" as="targetPoint" />
            <Array as="points">
              <mxPoint x="545" y="172" />
              <mxPoint x="555" y="152" />
            </Array>
          </mxGeometry>
        </mxCell>
        <mxCell id="D7f5AKQHRCtzAQtNA1vA-240" value="" style="curved=1;endArrow=none;html=1;rounded=0;endFill=0;entryX=0;entryY=0.5;entryDx=0;entryDy=0;" edge="1" parent="WIyWlLk6GJQsqaUBKTNV-1">
          <mxGeometry width="50" height="50" relative="1" as="geometry">
            <mxPoint x="593" y="181" as="sourcePoint" />
            <mxPoint x="576" y="131" as="targetPoint" />
            <Array as="points">
              <mxPoint x="583" y="171" />
              <mxPoint x="573" y="151" />
            </Array>
          </mxGeometry>
        </mxCell>
        <mxCell id="D7f5AKQHRCtzAQtNA1vA-241" value="&lt;b&gt;&lt;font style=&quot;font-size: 10px;&quot;&gt;...&lt;/font&gt;&lt;/b&gt;" style="strokeWidth=0;dashed=0;align=center;fontSize=8;shape=ellipse;perimeter=ellipsePerimeter;whiteSpace=wrap;html=1;aspect=fixed;" vertex="1" parent="WIyWlLk6GJQsqaUBKTNV-1">
          <mxGeometry x="623.8402127659575" y="141.30144117647063" width="16.157021276595746" height="11.180000000000001" as="geometry" />
        </mxCell>
      </root>
    </mxGraphModel>
  </diagram>
</mxfile>
